# xmcd
#
# Track frame offsets: 
#        150
#        3128
#        19808
#        35305
#        47280
#        62559
#        76991
#        92486
#        106693
#        120855
#        134820
#        147410
#        163584
#        178537
#
# Disc length: 2616 seconds
#
# Revision: 0
# Processed by: cddbd v1.5.2PL0 Copyright (c) Steve Scherf et al.
# Submitted via: ExactAudioCopy v0.99pb3
#
DISCID=a00a360e
DTITLE=Grupa Operacyjna - ostry Dy¿ur
DYEAR=2007
DGENRE=Rap
TTITLE0=Intro
TTITLE1=Miejsce dla Wariatów
TTITLE2=B¹dz Sob¹
TTITLE3=Nie bêdzie niczego
TTITLE4=Swir
TTITLE5=Kompleksy
TTITLE6=Stawka wiêksza ni¿ ¿ycie (ft. Mezo)
TTITLE7=Ró¿e
TTITLE8=Pó³noc (ft. Krzysztof Kiljañski)
TTITLE9=Prymityw
TTITLE10=Wysokie kwoty
TTITLE11=Toast
TTITLE12=Ojczyzna
TTITLE13=Mikrofon pod napiêciem (ft. DMF and ReZO)
EXTD=
EXTT0=
EXTT1=
EXTT2=
EXTT3=
EXTT4=
EXTT5=
EXTT6=
EXTT7=
EXTT8=
EXTT9=
EXTT10=
EXTT11=
EXTT12=
EXTT13=
PLAYORDER=
